<?xml version="1.0" encoding="UTF-8"?>
<svg id="Capa_1" data-name="Capa 1" xmlns="http://www.w3.org/2000/svg" version="1.1" viewBox="0 0 30 30">
  <defs>
    <style>
      .cls-1 {
        fill: #999;
        fill-rule: evenodd;
        stroke-width: 0px;
      }

      .cls-2 {
        fill: #ddd;
        font-family: FuturaBT-Bold, 'Futura Md BT';
        font-size: 13.34px;
        font-weight: 700;
      }
    </style>
  </defs>
  <path class="cls-1" d="M15.73,4.8c1.57,0,3.04,1.34,3.12,2.33h-6.25c.35-.66.33-.96,1.11-1.58.53-.42,1.27-.74,2.01-.74h0ZM10.59,7.13h-3.25c-.9,0-.96,1.19-1.04,1.78-.32,2.35-.84,5.06-1.18,7.46l-.78,4.92c-.14.84-.25,1.63-.39,2.49-.09.55-.35,2.02-.35,2.53,0,.45.5.86.98.86h13.66c1.22,0,1.29-1.81.18-1.95H5.75c.02-.29.1-.68.16-1.01.06-.38.11-.63.16-1l.96-6.08c.23-1.37.43-2.69.65-4.07.12-.72.2-1.3.31-2.01l.24-1.53c.03-.21-.02-.4.21-.4h14.64c.23,0,.18.18.21.4.03.22.06.42.08.59.07.39.12.79.18,1.16.13.79.76,5.31.99,5.69.59.97,1.84.29,1.84-.37,0-.54-1.03-6.79-1.16-7.54-.06-.36-.11-.95-.22-1.25-.11-.31-.46-.64-.83-.64h-3.25c-.02-.94-.93-2.3-1.61-2.93-.63-.58-2-1.36-3.17-1.36-1.34,0-2.14.09-3.31.86-.21.14-.47.33-.66.51-.69.64-1.59,1.99-1.61,2.93Z"/>
  <text class="cls-2" transform="translate(11.79 22.04)"><tspan x="0" y="0">0</tspan></text>
</svg>