<?xml version="1.0" encoding="UTF-8"?>
<svg id="Capa_1" data-name="Capa 1" xmlns="http://www.w3.org/2000/svg" version="1.1" viewBox="0 0 30 30">
  <defs>
    <style>
      .cls-1 {
        fill: #fff;
        stroke-width: 0px;
      }
    </style>
  </defs>
  <g>
    <path class="cls-1" d="M63.51,8.13c-.62,0-1.12.5-1.12,1.12s.5,1.12,1.12,1.12,1.12-.5,1.12-1.12-.5-1.12-1.12-1.12Z"/>
    <path class="cls-1" d="M58.53,9.57c-2.6,0-4.71,2.11-4.71,4.71s2.11,4.71,4.71,4.71,4.71-2.11,4.71-4.71-2.11-4.71-4.71-4.71ZM58.53,17.29c-1.66,0-3.02-1.35-3.02-3.02s1.35-3.02,3.02-3.02,3.02,1.35,3.02,3.02-1.35,3.02-3.02,3.02Z"/>
    <path class="cls-1" d="M62.26,23.83h-7.63c-3.17,0-5.74-2.58-5.74-5.74v-7.63c0-3.17,2.58-5.74,5.74-5.74h7.63c3.17,0,5.74,2.58,5.74,5.74v7.63c0,3.17-2.58,5.74-5.74,5.74ZM54.63,6.52c-2.17,0-3.94,1.77-3.94,3.94v7.63c0,2.17,1.77,3.94,3.94,3.94h7.63c2.17,0,3.94-1.77,3.94-3.94v-7.63c0-2.17-1.77-3.94-3.94-3.94h-7.63Z"/>
  </g>
  <path class="cls-1" d="M15,2.65c-6.82,0-12.35,5.53-12.35,12.35s5.53,12.35,12.35,12.35,12.35-5.53,12.35-12.35S21.82,2.65,15,2.65ZM19.21,9.75h-1.24c-1.22,0-1.61.76-1.61,1.54v1.85h2.73l-.44,2.85h-2.3v6.88h-3.08v-6.88h-2.5v-2.85h2.5v-2.17c0-2.47,1.47-3.83,3.72-3.83,1.08,0,2.21.19,2.21.19v2.42Z"/>
</svg>