<?xml version="1.0" encoding="UTF-8"?>
<svg id="Capa_1" data-name="Capa 1" xmlns="http://www.w3.org/2000/svg" version="1.1" viewBox="0 0 30 30">
  <defs>
    <style>
      .cls-1 {
        fill: #000;
        stroke: #fff;
        stroke-miterlimit: 10;
        stroke-width: 2px;
      }
    </style>
  </defs>
  <path class="cls-1" d="M26.68,16.28s.07-.08.1-.12c.06-.08.1-.16.14-.25.02-.04.05-.08.06-.12.04-.1.08-.21.1-.32,0-.03.02-.05.03-.08.03-.14.05-.28.05-.43s-.02-.29-.05-.43c0-.03-.02-.05-.03-.08-.03-.11-.06-.22-.11-.32-.02-.04-.04-.08-.06-.11-.04-.09-.09-.17-.14-.25-.03-.04-.07-.08-.1-.12-.06-.07-.11-.14-.18-.2-.01-.01-.02-.03-.03-.04l-6.61-5.96c-.86-.78-2.19-.71-2.96.15-.78.86-.71,2.19.15,2.96l2.56,2.31H4.93c-1.16,0-2.1.94-2.1,2.1s.94,2.1,2.1,2.1h14.68l-2.56,2.31c-.86.78-.93,2.1-.15,2.96.41.46.98.69,1.56.69.5,0,1-.18,1.4-.54l6.61-5.96s.02-.03.03-.04c.06-.06.12-.13.17-.19Z"/>
</svg>