<?xml version="1.0" encoding="UTF-8"?>
<svg id="Capa_1" data-name="Capa 1" xmlns="http://www.w3.org/2000/svg" version="1.1" viewBox="0 0 30 30">
  <defs>
    <style>
      .cls-1 {
        fill: #fff;
        stroke-width: 0px;
      }
    </style>
  </defs>
  <path class="cls-1" d="M21.5,7.11c-.79,0-1.44.64-1.44,1.44s.64,1.44,1.44,1.44,1.44-.64,1.44-1.44-.64-1.44-1.44-1.44Z"/>
  <path class="cls-1" d="M15.1,8.95c-3.33,0-6.05,2.71-6.05,6.05s2.71,6.05,6.05,6.05,6.05-2.71,6.05-6.05-2.71-6.05-6.05-6.05ZM15.1,18.87c-2.14,0-3.87-1.74-3.87-3.87s1.74-3.87,3.87-3.87,3.87,1.74,3.87,3.87-1.74,3.87-3.87,3.87Z"/>
  <path class="cls-1" d="M19.9,27.28h-9.8c-4.07,0-7.38-3.31-7.38-7.38v-9.8c0-4.07,3.31-7.38,7.38-7.38h9.8c4.07,0,7.38,3.31,7.38,7.38v9.8c0,4.07-3.31,7.38-7.38,7.38ZM10.1,5.03c-2.79,0-5.07,2.27-5.07,5.07v9.8c0,2.79,2.27,5.07,5.07,5.07h9.8c2.79,0,5.07-2.27,5.07-5.07v-9.8c0-2.79-2.27-5.07-5.07-5.07h-9.8Z"/>
</svg>