<?xml version="1.0" encoding="UTF-8"?>
<svg id="Capa_1" data-name="Capa 1" xmlns="http://www.w3.org/2000/svg" version="1.1" viewBox="0 0 30 30">
  <defs>
    <style>
      .cls-1 {
        fill: #fff;
        fill-rule: evenodd;
        stroke-width: 0px;
      }
    </style>
  </defs>
  <path class="cls-1" d="M5.76,11.77c0-1.36.41-2.54,1.1-3.56,1.94-2.86,6.17-3.62,8.88-1.62,1.36,1.01,2.1,1.99,2.55,3.69.33,1.26.19,2.8-.38,3.95-.08.17-.14.35-.25.51-.87,1.34-1.5,1.92-2.92,2.62-.7.35-1.62.52-2.59.58-.1,0-.53-.03-.71-.05-.19-.01-.51-.06-.71-.11-1.22-.29-2.2-.83-3.08-1.65,0,0-.02-.02-.03-.02l-.05-.05s-.05-.06-.1-.11c-.08-.08-.13-.12-.2-.2-.3-.33-.76-1.03-.94-1.44-.3-.7-.59-1.58-.59-2.55h0ZM12.02,2c-1.1.02-2.2.22-3.27.57-.31.1-.56.23-.87.36-.75.3-1.54.9-2.17,1.4-.26.2-.4.36-.64.58-1.54,1.51-2.79,3.99-2.81,6.16,0,.28-.06.31-.05.55l.08,1.08c.06.42.08.7.17,1.05.43,1.8,1.24,3.38,2.53,4.66.21.2.38.38.59.58.13.12.2.16.33.28.37.33,1.38.92,1.85,1.15.92.45,2.53.97,3.88.97,1.53,0,1.88,0,3.41-.42.65-.18,1.48-.58,2.07-.89.24.16,4.64,4.53,5.16,5.05.36.35.69.63,1.05.98,1.06,1.04,1.4,1.67,2.7,1.67s2.4-1.57,1.74-2.87c-.3-.61-1.9-2.04-2.48-2.6-1.1-1.08-3.03-3.06-4.15-4.03l-.96-.97c.04-.16.07-.13.17-.28,1.06-1.5,1.62-3.61,1.62-5.51,0-1.66-.53-3.19-1.3-4.61-.14-.26-.3-.5-.47-.74l-.54-.68c-.15-.19-.4-.51-.58-.64-.35-.26-.55-.54-1.3-1.09-.25-.18-.48-.3-.75-.47-1.41-.84-2.99-1.25-4.6-1.29h-.44Z"/>
</svg>